<svg width="442" height="151" viewBox="0 0 442 151" fill="none" xmlns="http://www.w3.org/2000/svg">
<circle cx="386.574" cy="89.8526" r="40" transform="rotate(29.375 386.574 89.8526)" fill="#B4D0EB"/>
<path d="M416.765 115.355C425.175 106.67 424.952 92.8121 416.266 84.4024C407.581 75.9927 393.723 76.216 385.314 84.9011C376.904 93.5861 398.279 80.9511 401.039 100.128C400.748 117.212 408.355 124.04 416.765 115.355Z" fill="black"/>
<path d="M397.083 54.5166C386.022 49.638 373.1 54.65 368.221 65.7114C363.343 76.7727 368.355 89.6946 379.416 94.5732C390.478 99.4519 371.218 83.7799 388.25 74.5449C404.376 68.8977 408.145 59.3953 397.083 54.5166Z" fill="black"/>
<path d="M349.101 97.4227C349.832 109.49 360.207 118.68 372.274 117.949C384.342 117.219 393.532 106.844 392.801 94.7764C392.07 82.7091 386.963 107.009 370.951 96.0996C358.544 84.3523 348.371 85.3554 349.101 97.4227Z" fill="black"/>
<path d="M420.265 108.391C426.918 98.2973 424.13 84.7209 414.036 78.0673C403.942 71.4137 390.366 74.2026 383.712 84.2963C377.058 94.3901 395.721 78.0108 401.988 96.3437C404.87 113.185 413.611 118.485 420.265 108.391Z" fill="#1074BB"/>
<path d="M389.644 52.2565C377.87 49.5133 366.101 56.8343 363.358 68.6084C360.615 80.3825 367.936 92.1511 379.71 94.8942C391.484 97.6374 369.653 85.8081 384.677 73.5754C399.477 65.0361 401.418 54.9996 389.644 52.2565Z" fill="#03ACEE"/>
<path d="M350.449 103.315C353.405 115.038 365.304 122.145 377.027 119.189C388.749 116.234 395.856 104.335 392.901 92.6121C389.945 80.8895 389.432 105.715 371.675 97.9636C357.305 88.7205 347.494 91.5924 350.449 103.315Z" fill="#293890"/>
<path d="M8.45455 150.182V54.1818H24.6364V65.7273H25.5909C26.4394 64.0303 27.6364 62.2273 29.1818 60.3182C30.7273 58.3788 32.8182 56.7273 35.4545 55.3636C38.0909 53.9697 41.4545 53.2727 45.5455 53.2727C50.9394 53.2727 55.803 54.6515 60.1364 57.4091C64.5 60.1364 67.9545 64.1818 70.5 69.5455C73.0758 74.8788 74.3636 81.4242 74.3636 89.1818C74.3636 96.8485 73.1061 103.364 70.5909 108.727C68.0758 114.091 64.6515 118.182 60.3182 121C55.9849 123.818 51.0758 125.227 45.5909 125.227C41.5909 125.227 38.2727 124.561 35.6364 123.227C33 121.894 30.8788 120.288 29.2727 118.409C27.697 116.5 26.4697 114.697 25.5909 113H24.9091V150.182H8.45455ZM24.5909 89.0909C24.5909 93.6061 25.2273 97.5606 26.5 100.955C27.803 104.348 29.6667 107 32.0909 108.909C34.5455 110.788 37.5152 111.727 41 111.727C44.6364 111.727 47.6818 110.758 50.1364 108.818C52.5909 106.848 54.4394 104.167 55.6818 100.773C56.9545 97.3485 57.5909 93.4545 57.5909 89.0909C57.5909 84.7576 56.9697 80.9091 55.7273 77.5455C54.4849 74.1818 52.6364 71.5455 50.1818 69.6364C47.7273 67.7273 44.6667 66.7727 41 66.7727C37.4848 66.7727 34.5 67.697 32.0455 69.5455C29.5909 71.3939 27.7273 73.9848 26.4545 77.3182C25.2121 80.6515 24.5909 84.5758 24.5909 89.0909ZM88.4545 124V54.1818H104.409V65.8182H105.136C106.409 61.7879 108.591 58.6818 111.682 56.5C114.803 54.2879 118.364 53.1818 122.364 53.1818C123.273 53.1818 124.288 53.2273 125.409 53.3182C126.561 53.3788 127.515 53.4848 128.273 53.6364V68.7727C127.576 68.5303 126.47 68.3182 124.955 68.1364C123.47 67.9242 122.03 67.8182 120.636 67.8182C117.636 67.8182 114.939 68.4697 112.545 69.7727C110.182 71.0455 108.318 72.8182 106.955 75.0909C105.591 77.3636 104.909 79.9848 104.909 82.9545V124H88.4545ZM167.239 125.364C160.239 125.364 154.193 123.909 149.102 121C144.042 118.061 140.148 113.909 137.42 108.545C134.693 103.152 133.33 96.803 133.33 89.5C133.33 82.3182 134.693 76.0152 137.42 70.5909C140.178 65.1364 144.027 60.8939 148.966 57.8636C153.905 54.803 159.708 53.2727 166.375 53.2727C170.678 53.2727 174.739 53.9697 178.557 55.3636C182.405 56.7273 185.799 58.8485 188.739 61.7273C191.708 64.6061 194.042 68.2727 195.739 72.7273C197.436 77.1515 198.284 82.4242 198.284 88.5455V93.5909H141.057V82.5H182.511C182.481 79.3485 181.799 76.5455 180.466 74.0909C179.133 71.6061 177.269 69.6515 174.875 68.2273C172.511 66.803 169.754 66.0909 166.602 66.0909C163.239 66.0909 160.284 66.9091 157.739 68.5455C155.193 70.1515 153.208 72.2727 151.784 74.9091C150.39 77.5151 149.678 80.3788 149.648 83.5V93.1818C149.648 97.2424 150.39 100.727 151.875 103.636C153.36 106.515 155.436 108.727 158.102 110.273C160.769 111.788 163.89 112.545 167.466 112.545C169.86 112.545 172.027 112.212 173.966 111.545C175.905 110.848 177.587 109.833 179.011 108.5C180.436 107.167 181.511 105.515 182.239 103.545L197.602 105.273C196.633 109.333 194.784 112.879 192.057 115.909C189.36 118.909 185.905 121.242 181.693 122.909C177.481 124.545 172.663 125.364 167.239 125.364ZM267.386 72.6364L252.386 74.2727C251.962 72.7576 251.22 71.3333 250.159 70C249.129 68.6667 247.735 67.5909 245.977 66.7727C244.22 65.9545 242.068 65.5455 239.523 65.5455C236.098 65.5455 233.22 66.2879 230.886 67.7727C228.583 69.2576 227.447 71.1818 227.477 73.5455C227.447 75.5758 228.189 77.2273 229.705 78.5C231.25 79.7727 233.795 80.8182 237.341 81.6364L249.25 84.1818C255.856 85.6061 260.765 87.8636 263.977 90.9545C267.22 94.0455 268.856 98.0909 268.886 103.091C268.856 107.485 267.568 111.364 265.023 114.727C262.508 118.061 259.008 120.667 254.523 122.545C250.038 124.424 244.886 125.364 239.068 125.364C230.523 125.364 223.644 123.576 218.432 120C213.22 116.394 210.114 111.379 209.114 104.955L225.159 103.409C225.886 106.561 227.432 108.939 229.795 110.545C232.159 112.152 235.235 112.955 239.023 112.955C242.932 112.955 246.068 112.152 248.432 110.545C250.826 108.939 252.023 106.955 252.023 104.591C252.023 102.591 251.25 100.939 249.705 99.6364C248.189 98.3333 245.826 97.3333 242.614 96.6364L230.705 94.1364C224.008 92.7424 219.053 90.3939 215.841 87.0909C212.629 83.7576 211.038 79.5455 211.068 74.4545C211.038 70.1515 212.205 66.4242 214.568 63.2727C216.962 60.0909 220.28 57.6364 224.523 55.9091C228.795 54.1515 233.72 53.2727 239.295 53.2727C247.477 53.2727 253.917 55.0152 258.614 58.5C263.341 61.9848 266.265 66.697 267.386 72.6364ZM297.455 102.091L297.409 82.2273H300.045L325.136 54.1818H344.364L313.5 88.5455H310.091L297.455 102.091ZM282.455 124V30.9091H298.909V124H282.455ZM326.273 124L303.545 92.2273L314.636 80.6364L345.955 124H326.273Z" fill="black"/>
</svg>
